<?xml version="1.0" standalone="no"?>
<!DOCTYPE svg PUBLIC "-//W3C//DTD SVG 20010904//EN"
 "http://www.w3.org/TR/2001/REC-SVG-20010904/DTD/svg10.dtd">
<svg version="1.0" xmlns="http://www.w3.org/2000/svg"
 width="778.000000pt" height="350.000000pt" viewBox="0 0 778.000000 350.000000"
 preserveAspectRatio="xMidYMid meet">

<g transform="translate(0.000000,350.000000) scale(0.100000,-0.100000)"
fill="#000000" stroke="none">
<path d="M1085 3044 c-623 -267 -591 -252 -605 -282 -51 -109 -410 -1022 -410
-1043 0 -14 97 -253 216 -530 119 -277 218 -509 221 -516 6 -14 28 -24 602
-254 245 -99 457 -179 472 -179 33 0 1027 424 1052 448 23 24 427 1027 427
1062 0 34 -424 1028 -449 1053 -26 27 -1028 427 -1065 426 -17 0 -224 -83
-461 -185z m935 -174 c250 -100 460 -187 467 -194 6 -6 99 -217 206 -468 l195
-458 -185 -462 c-101 -255 -190 -468 -196 -475 -7 -6 -218 -99 -469 -206
l-458 -196 -462 186 c-255 101 -468 190 -475 196 -6 7 -99 218 -206 469 l-195
457 184 463 c102 255 193 469 202 477 23 18 915 400 927 396 6 -1 215 -85 465
-185z"/>
<path d="M1333 2379 c-45 -13 -96 -67 -111 -116 -7 -22 -12 -72 -12 -112 l0
-71 60 0 60 0 0 70 c0 62 3 74 25 95 24 25 26 25 215 25 233 0 230 1 230 -115
l0 -75 61 0 61 0 -4 98 c-3 90 -5 102 -31 135 -52 68 -66 72 -307 74 -118 1
-230 -2 -247 -8z"/>
<path d="M918 2004 c-57 -31 -58 -37 -58 -469 0 -351 2 -399 16 -421 35 -53
42 -54 461 -54 l388 0 -108 108 -108 109 -52 -5 c-160 -13 -297 113 -297 273
0 35 4 66 8 69 5 3 44 -31 87 -75 102 -102 114 -103 202 -16 88 89 87 104 -14
208 -42 43 -73 82 -70 86 4 3 33 6 66 6 99 -1 187 -53 238 -140 21 -37 27 -62
31 -127 l4 -81 206 -207 c193 -194 209 -208 243 -208 22 0 47 8 63 21 56 44
56 46 56 459 0 421 0 422 -63 460 -31 19 -54 20 -652 20 -529 -1 -624 -3 -647
-16z"/>
<path d="M5842 2509 c-225 -34 -388 -183 -449 -410 -23 -87 -23 -270 1 -359
42 -154 145 -288 267 -347 89 -43 158 -58 269 -57 116 0 187 21 258 74 48 37
50 37 56 17 3 -12 6 -32 6 -44 0 -22 3 -23 95 -23 l95 0 0 320 0 320 -265 0
-265 0 0 -110 0 -110 150 0 150 0 0 -29 c0 -66 -43 -126 -115 -164 -48 -25
-179 -35 -241 -18 -148 40 -233 190 -221 391 10 162 75 265 195 310 47 18 73
21 142 18 100 -5 162 -29 255 -102 l60 -46 77 82 c43 46 77 86 75 90 -1 5 -27
28 -57 53 -69 57 -170 110 -244 129 -76 20 -215 27 -294 15z"/>
<path d="M7050 2510 c-220 -35 -385 -187 -446 -411 -24 -87 -24 -261 0 -349
41 -150 141 -283 261 -347 95 -50 166 -67 285 -67 123 0 210 22 305 79 246
145 336 510 197 799 -87 182 -249 287 -464 300 -45 3 -108 1 -138 -4z m236
-248 c50 -26 110 -91 135 -147 44 -100 44 -280 0 -380 -24 -55 -84 -121 -135
-148 -34 -18 -58 -22 -136 -22 -111 0 -152 16 -214 86 -50 54 -73 109 -86 200
-29 206 55 380 210 430 47 15 181 4 226 -19z"/>
<path d="M3300 1930 l0 -570 415 0 415 0 0 110 0 110 -290 0 -290 0 0 130 0
130 265 0 265 0 0 110 0 110 -265 0 -265 0 0 110 0 110 280 0 280 0 0 110 0
110 -405 0 -405 0 0 -570z"/>
<path d="M4320 1926 l0 -566 125 0 125 0 0 200 0 200 98 0 97 0 125 -200 125
-200 138 0 c108 0 137 3 131 13 -4 6 -65 101 -136 211 -71 109 -128 199 -126
200 92 40 159 100 197 174 71 140 36 332 -80 436 -95 86 -116 90 -491 94
l-328 4 0 -566z m610 333 c50 -28 74 -72 74 -134 0 -62 -24 -106 -74 -134 -34
-19 -54 -21 -199 -21 l-161 0 0 155 0 155 161 0 c145 0 165 -2 199 -21z"/>
<path d="M3922 1272 c-102 -37 -154 -117 -154 -237 1 -153 89 -248 232 -249
85 -1 130 16 179 66 118 117 81 353 -65 414 -58 24 -134 26 -192 6z m169 -108
c65 -57 65 -200 1 -258 -31 -27 -107 -33 -147 -12 -86 47 -97 193 -19 265 34
31 40 33 90 29 34 -3 62 -12 75 -24z"/>
<path d="M4452 1272 c-102 -37 -154 -117 -154 -237 1 -153 89 -248 232 -249
85 -1 130 16 179 66 118 117 81 353 -65 414 -58 24 -134 26 -192 6z m169 -108
c65 -57 65 -200 1 -258 -31 -27 -107 -33 -147 -12 -86 47 -97 193 -19 265 34
31 40 33 90 29 34 -3 62 -12 75 -24z"/>
<path d="M5351 1280 c-73 -17 -126 -80 -125 -146 1 -71 52 -110 181 -140 86
-20 103 -29 103 -59 0 -64 -123 -75 -204 -18 l-44 31 -31 -38 -30 -38 34 -27
c19 -14 52 -33 73 -42 46 -21 176 -23 212 -4 100 53 130 166 59 225 -28 24
-108 54 -189 71 -43 9 -60 22 -60 45 0 54 102 68 178 24 l44 -26 29 34 c15 18
28 35 29 38 0 13 -76 55 -123 67 -56 14 -85 15 -136 3z"/>
<path d="M3310 1034 l0 -246 153 4 c169 4 204 14 232 68 32 62 11 147 -43 171
l-29 13 33 32 c29 27 34 38 34 77 0 56 -34 102 -88 117 -20 5 -94 10 -164 10
l-128 0 0 -246z m239 157 c32 -9 45 -32 37 -64 -8 -32 -59 -50 -126 -45 l-45
3 -3 44 c-5 65 0 71 60 70 29 -1 64 -4 77 -8z m36 -211 c22 -25 23 -70 0 -86
-22 -16 -88 -27 -135 -22 l-35 3 -3 63 -3 62 79 0 c66 0 82 -3 97 -20z"/>
<path d="M4800 1230 l0 -50 70 0 70 0 0 -195 0 -195 50 0 50 0 0 195 0 195 70
0 70 0 0 50 0 50 -190 0 -190 0 0 -50z"/>
<path d="M5660 1230 l0 -50 70 0 70 0 0 -195 0 -195 50 0 50 0 0 195 0 195 70
0 70 0 0 50 0 50 -190 0 -190 0 0 -50z"/>
<path d="M6725 1268 c-3 -7 -38 -107 -79 -223 -41 -116 -77 -218 -81 -227 -6
-16 -1 -18 47 -18 l55 0 12 40 12 40 109 0 109 0 12 -40 12 -40 54 0 c29 0 53
3 53 8 0 4 -37 112 -82 239 l-83 233 -73 0 c-49 0 -74 -4 -77 -12z m117 -187
c20 -61 33 -112 30 -115 -8 -9 -142 -7 -142 2 -1 14 65 222 70 222 3 0 22 -49
42 -109z"/>
<path d="M6110 1031 l0 -241 50 0 50 0 0 85 0 85 45 0 45 0 50 -77 c27 -43 51
-82 53 -86 1 -5 28 -7 59 -5 l57 3 -54 85 -54 85 22 17 c12 10 25 18 28 18 3
0 16 18 28 41 40 70 19 150 -53 203 -24 19 -45 21 -177 24 l-149 4 0 -241z
m248 148 c37 -13 53 -51 40 -91 -12 -34 -61 -51 -133 -46 l-50 3 -3 59 c-2 32
-1 65 2 72 7 17 99 19 144 3z"/>
<path d="M7100 1031 l0 -241 50 0 50 0 0 84 0 84 98 4 c110 5 152 21 182 71
26 43 26 121 0 164 -34 57 -68 67 -232 71 l-148 4 0 -241z m282 129 c23 -29
23 -62 -1 -91 -16 -20 -27 -23 -97 -23 l-79 -1 -3 59 c-5 89 -4 89 85 84 64
-4 80 -9 95 -28z"/>
</g>
</svg>
